# xmcd
#
# Track frame offsets:
#	150
#	12390
#	18100
#	30963
#	40733
#	51898
#	63598
#	73600
#	82840
#	100000
#	108203
#	124353
#	141303
#	154378
#	165143
#	175025
#	194998
#	212650
#	228765
#	244600
#	266410
#
# Disc length: 3695 seconds
#
# Revision: 2
# Processed by: cddbd v1.5.2PL0 Copyright (c) Steve Scherf et al.
# Submitted via: audiograbber 1.83.01
#
DISCID=0f0e6d15
DTITLE=Nitty Gritty Dirt Band, The - Will The Circle Be Unbroken - Disc2
DYEAR=1972
DGENRE=Bluegrass
TTITLE0=Lonesome Fiddle Blues
TTITLE1=Cannonball Rag
TTITLE2=Avalanche
TTITLE3=Flint Hill Special
TTITLE4=Togary Mountain
TTITLE5=Earl's Breakdown
TTITLE6=Orange Blossom Special
TTITLE7=Wabash Cannonball
TTITLE8=Lost Highway
TTITLE9=Doc Watson and Merle Travis:  First Meeting
TTITLE10=Way Downtown
TTITLE11=Down Yonder
TTITLE12=Pins And Needles
TTITLE13=Honky Tonk Blues
TTITLE14=Sailin' On To Hawaii
TTITLE15=I'm Thinking Tonight Of My Blue Eyes
TTITLE16=I Am A Pilgrim
TTITLE17=Wildwood Flower
TTITLE18=Soldier's Joy
TTITLE19=Will The Cricle Be Unbroken
TTITLE20=Both Sides Now
EXTD=
EXTT0=
EXTT1=
EXTT2=
EXTT3=
EXTT4=
EXTT5=
EXTT6=
EXTT7=
EXTT8=
EXTT9=
EXTT10=
EXTT11=
EXTT12=
EXTT13=
EXTT14=
EXTT15=
EXTT16=
EXTT17=
EXTT18=
EXTT19=
EXTT20=
PLAYORDER=
